<mxfile host="app.diagrams.net" modified="2023-09-24T22:07:04.824Z" agent="Mozilla/5.0 (Windows NT 10.0; Win64; x64; rv:109.0) Gecko/20100101 Firefox/117.0" etag="q8waUOFnthHIEVIKVe5i" version="21.7.1" type="github">
  <diagram id="1qjW0R6THxbMPnX_bfFr" name="Sivu-1">
    <mxGraphModel dx="947" dy="510" grid="1" gridSize="5" guides="1" tooltips="1" connect="1" arrows="1" fold="1" page="1" pageScale="1" pageWidth="827" pageHeight="1169" math="1" shadow="0">
      <root>
        <mxCell id="0" />
        <mxCell id="1" parent="0" />
        <mxCell id="FqvH9eAlEjdmubDwuPOy-8" value="" style="rounded=0;whiteSpace=wrap;html=1;strokeWidth=2;fillColor=#A1A1A1;strokeColor=none;" parent="1" vertex="1">
          <mxGeometry x="20" y="70" width="810" height="370" as="geometry" />
        </mxCell>
        <mxCell id="FqvH9eAlEjdmubDwuPOy-5" value="" style="rounded=0;whiteSpace=wrap;html=1;fillColor=#FFFFFF;strokeWidth=2;strokeColor=#080808;" parent="1" vertex="1">
          <mxGeometry x="40" y="100" width="160" height="240" as="geometry" />
        </mxCell>
        <mxCell id="FqvH9eAlEjdmubDwuPOy-4" value="" style="rounded=0;whiteSpace=wrap;html=1;strokeColor=none;fillColor=#FFFFFF;" parent="1" vertex="1">
          <mxGeometry x="190" y="160" width="640" height="120" as="geometry" />
        </mxCell>
        <mxCell id="FqvH9eAlEjdmubDwuPOy-1" value="" style="endArrow=none;html=1;rounded=0;strokeWidth=2;entryX=1;entryY=0;entryDx=0;entryDy=0;" parent="1" target="FqvH9eAlEjdmubDwuPOy-4" edge="1">
          <mxGeometry width="50" height="50" relative="1" as="geometry">
            <mxPoint x="200" y="160" as="sourcePoint" />
            <mxPoint x="760" y="160" as="targetPoint" />
          </mxGeometry>
        </mxCell>
        <mxCell id="FqvH9eAlEjdmubDwuPOy-2" value="" style="endArrow=none;html=1;rounded=0;strokeWidth=2;entryX=1;entryY=1;entryDx=0;entryDy=0;" parent="1" target="FqvH9eAlEjdmubDwuPOy-4" edge="1">
          <mxGeometry width="50" height="50" relative="1" as="geometry">
            <mxPoint x="200" y="280" as="sourcePoint" />
            <mxPoint x="760" y="280" as="targetPoint" />
          </mxGeometry>
        </mxCell>
        <mxCell id="FqvH9eAlEjdmubDwuPOy-9" value="&lt;font style=&quot;font-size: 24px;&quot;&gt;Primary source&lt;/font&gt;" style="ellipse;shape=cloud;whiteSpace=wrap;html=1;strokeColor=#6c8ebf;strokeWidth=2;fillColor=#dae8fc;" parent="1" vertex="1">
          <mxGeometry x="50" y="150" width="140" height="120" as="geometry" />
        </mxCell>
        <mxCell id="FqvH9eAlEjdmubDwuPOy-11" value="" style="ellipse;whiteSpace=wrap;html=1;aspect=fixed;strokeColor=#82b366;strokeWidth=1;fontSize=24;fillColor=#d5e8d4;" parent="1" vertex="1">
          <mxGeometry x="680" y="210" width="30" height="30" as="geometry" />
        </mxCell>
        <mxCell id="FqvH9eAlEjdmubDwuPOy-16" value="" style="shape=or;whiteSpace=wrap;html=1;strokeColor=#b85450;strokeWidth=1;fontSize=24;fillColor=#f8cecc;rotation=-90;" parent="1" vertex="1">
          <mxGeometry x="457.5" y="243" width="5" height="10" as="geometry" />
        </mxCell>
        <mxCell id="FqvH9eAlEjdmubDwuPOy-12" value="" style="shape=trapezoid;perimeter=trapezoidPerimeter;whiteSpace=wrap;html=1;fixedSize=1;strokeColor=#b85450;strokeWidth=1;fontSize=24;fillColor=#f8cecc;rotation=-180;size=15;" parent="1" vertex="1">
          <mxGeometry x="435" y="250" width="50" height="20" as="geometry" />
        </mxCell>
        <mxCell id="FqvH9eAlEjdmubDwuPOy-14" value="" style="rounded=0;whiteSpace=wrap;html=1;strokeColor=#b85450;strokeWidth=1;fontSize=24;fillColor=#f8cecc;" parent="1" vertex="1">
          <mxGeometry x="445" y="270" width="30" height="10" as="geometry" />
        </mxCell>
        <mxCell id="FqvH9eAlEjdmubDwuPOy-19" value="Controller" style="rounded=0;whiteSpace=wrap;html=1;strokeColor=#9673a6;strokeWidth=1;fontSize=24;fillColor=#e1d5e7;" parent="1" vertex="1">
          <mxGeometry x="325" y="350" width="270" height="40" as="geometry" />
        </mxCell>
        <mxCell id="TlTv3OOh6CMw1LLFSk3N-2" value="" style="endArrow=classic;html=1;rounded=0;strokeWidth=3;strokeColor=#0000FF;" parent="1" edge="1">
          <mxGeometry width="50" height="50" relative="1" as="geometry">
            <mxPoint x="190" y="209.5" as="sourcePoint" />
            <mxPoint x="680" y="210" as="targetPoint" />
          </mxGeometry>
        </mxCell>
        <mxCell id="TlTv3OOh6CMw1LLFSk3N-3" value="" style="endArrow=classic;html=1;rounded=0;strokeColor=#CC0000;strokeWidth=3;" parent="1" edge="1">
          <mxGeometry width="50" height="50" relative="1" as="geometry">
            <mxPoint x="457.5" y="240" as="sourcePoint" />
            <mxPoint x="680" y="240.5" as="targetPoint" />
          </mxGeometry>
        </mxCell>
        <mxCell id="TlTv3OOh6CMw1LLFSk3N-7" value="" style="endArrow=classic;html=1;rounded=0;entryX=0.5;entryY=1;entryDx=0;entryDy=0;exitX=0.5;exitY=0;exitDx=0;exitDy=0;strokeColor=#B266FF;strokeWidth=3;" parent="1" source="FqvH9eAlEjdmubDwuPOy-19" target="FqvH9eAlEjdmubDwuPOy-14" edge="1">
          <mxGeometry width="50" height="50" relative="1" as="geometry">
            <mxPoint x="455" y="340" as="sourcePoint" />
            <mxPoint x="505" y="290" as="targetPoint" />
          </mxGeometry>
        </mxCell>
        <mxCell id="TlTv3OOh6CMw1LLFSk3N-12" value="" style="endArrow=classic;html=1;rounded=0;entryX=1;entryY=0.5;entryDx=0;entryDy=0;strokeWidth=3;strokeColor=#009900;" parent="1" target="FqvH9eAlEjdmubDwuPOy-19" edge="1">
          <mxGeometry width="50" height="50" relative="1" as="geometry">
            <mxPoint x="695" y="240" as="sourcePoint" />
            <mxPoint x="695" y="505" as="targetPoint" />
            <Array as="points">
              <mxPoint x="695" y="370" />
            </Array>
          </mxGeometry>
        </mxCell>
        <mxCell id="TlTv3OOh6CMw1LLFSk3N-13" value="&lt;font style=&quot;font-size: 20px;&quot; color=&quot;#0000ff&quot;&gt;Primary noise&lt;i&gt; \(d(n)\)&lt;/i&gt;&lt;/font&gt;" style="text;html=1;strokeColor=none;fillColor=none;align=center;verticalAlign=middle;whiteSpace=wrap;rounded=0;" parent="1" vertex="1">
          <mxGeometry x="414" y="175" width="245" height="30" as="geometry" />
        </mxCell>
        <mxCell id="TlTv3OOh6CMw1LLFSk3N-14" value="&lt;font style=&quot;font-size: 20px;&quot; color=&quot;#cc0000&quot;&gt;Anti-noise &lt;i&gt;\(y(n)\)&lt;/i&gt;&lt;/font&gt;" style="text;html=1;strokeColor=none;fillColor=none;align=center;verticalAlign=middle;whiteSpace=wrap;rounded=0;" parent="1" vertex="1">
          <mxGeometry x="445" y="240" width="245" height="30" as="geometry" />
        </mxCell>
        <mxCell id="TlTv3OOh6CMw1LLFSk3N-16" value="&lt;font style=&quot;font-size: 20px;&quot; color=&quot;#009900&quot;&gt;Error signal&lt;i&gt; \(e(n)\)&lt;/i&gt;&lt;/font&gt;" style="text;html=1;strokeColor=none;fillColor=#CCCCCC;align=center;verticalAlign=middle;whiteSpace=wrap;rounded=0;" parent="1" vertex="1">
          <mxGeometry x="600" y="380" width="155" height="30" as="geometry" />
        </mxCell>
        <mxCell id="TlTv3OOh6CMw1LLFSk3N-17" value="&lt;font style=&quot;font-size: 16px;&quot;&gt;Error sensor&lt;br&gt;&lt;/font&gt;" style="rounded=0;whiteSpace=wrap;html=1;strokeColor=none;" parent="1" vertex="1">
          <mxGeometry x="647.5" y="165" width="95" height="20" as="geometry" />
        </mxCell>
        <mxCell id="TlTv3OOh6CMw1LLFSk3N-20" value="&lt;font style=&quot;font-size: 16px;&quot;&gt;Secondary source&lt;font style=&quot;font-size: 16px;&quot;&gt;&lt;br&gt;&lt;/font&gt;&lt;/font&gt;" style="rounded=0;whiteSpace=wrap;html=1;strokeColor=none;" parent="1" vertex="1">
          <mxGeometry x="310" y="235" width="85" height="38" as="geometry" />
        </mxCell>
        <mxCell id="TlTv3OOh6CMw1LLFSk3N-21" value="" style="endArrow=none;html=1;rounded=0;exitX=0.5;exitY=1;exitDx=0;exitDy=0;endFill=0;" parent="1" source="TlTv3OOh6CMw1LLFSk3N-17" edge="1">
          <mxGeometry width="50" height="50" relative="1" as="geometry">
            <mxPoint x="650" y="135" as="sourcePoint" />
            <mxPoint x="695" y="205" as="targetPoint" />
          </mxGeometry>
        </mxCell>
        <mxCell id="TlTv3OOh6CMw1LLFSk3N-25" value="" style="endArrow=none;html=1;rounded=0;exitX=1;exitY=0.5;exitDx=0;exitDy=0;endFill=0;" parent="1" source="TlTv3OOh6CMw1LLFSk3N-20" edge="1">
          <mxGeometry width="50" height="50" relative="1" as="geometry">
            <mxPoint x="350" y="315" as="sourcePoint" />
            <mxPoint x="430" y="254" as="targetPoint" />
          </mxGeometry>
        </mxCell>
        <mxCell id="TlTv3OOh6CMw1LLFSk3N-26" value="" style="endArrow=classic;html=1;rounded=0;strokeWidth=3;strokeColor=#009900;" parent="1" edge="1">
          <mxGeometry width="50" height="50" relative="1" as="geometry">
            <mxPoint x="720" y="225" as="sourcePoint" />
            <mxPoint x="825" y="225" as="targetPoint" />
          </mxGeometry>
        </mxCell>
        <mxCell id="TlTv3OOh6CMw1LLFSk3N-27" value="&lt;i&gt;&lt;font style=&quot;font-size: 20px;&quot; color=&quot;#009900&quot;&gt;\(e(n)\)&lt;/font&gt;&lt;/i&gt;" style="text;html=1;strokeColor=none;fillColor=none;align=center;verticalAlign=middle;whiteSpace=wrap;rounded=0;" parent="1" vertex="1">
          <mxGeometry x="755" y="190" width="55" height="30" as="geometry" />
        </mxCell>
        <mxCell id="F5eVOIsTsxfRQEfKMrUP-1" value="&lt;font color=&quot;#7f00ff&quot;&gt;&lt;i&gt;&lt;font style=&quot;font-size: 20px;&quot;&gt;\(u(n)\)&lt;/font&gt;&lt;/i&gt;&lt;/font&gt;" style="text;html=1;strokeColor=none;fillColor=none;align=center;verticalAlign=middle;whiteSpace=wrap;rounded=0;" parent="1" vertex="1">
          <mxGeometry x="462.5" y="310" width="55" height="30" as="geometry" />
        </mxCell>
      </root>
    </mxGraphModel>
  </diagram>
</mxfile>
